RobotoFlex-Regular.ufo
<glyph name="nine" format="2">
  <advance width="1156"/>
  <unicode hex="0039"/>
  <outline>
    <contour>
      <point x="72.0" y="1002.0" type="curve" smooth="yes"/>
      <point x="72" y="1291"/>
      <point x="275" y="1486"/>
      <point x="556.0" y="1486.0" type="curve" smooth="yes"/>
      <point x="837" y="1486"/>
      <point x="1068" y="1298"/>
      <point x="1068.0" y="842.0" type="curve" smooth="yes"/>
      <point x="1068.0" y="812.0" type="line" smooth="yes"/>
      <point x="1068" y="303"/>
      <point x="785" y="-30"/>
      <point x="276.0" y="-30.0" type="curve" smooth="yes"/>
      <point x="256.0" y="-30.0" type="line"/>
      <point x="256.0" y="128.0" type="line"/>
      <point x="276.0" y="128.0" type="line" smooth="yes"/>
      <point x="651" y="128"/>
      <point x="880" y="333"/>
      <point x="880.0" y="802.0" type="curve" smooth="yes"/>
      <point x="880.0" y="852.0" type="line" smooth="yes"/>
      <point x="880" y="1200"/>
      <point x="744" y="1328"/>
      <point x="556.0" y="1328.0" type="curve" smooth="yes"/>
      <point x="368" y="1328"/>
      <point x="262" y="1210"/>
      <point x="262.0" y="1002.0" type="curve" smooth="yes"/>
      <point x="262" y="794"/>
      <point x="368" y="678"/>
      <point x="556.0" y="678.0" type="curve" smooth="yes"/>
      <point x="730" y="678"/>
      <point x="886" y="794"/>
      <point x="886.0" y="1002.0" type="curve"/>
      <point x="956.0" y="1002.0" type="line"/>
      <point x="956" y="713"/>
      <point x="784" y="520"/>
      <point x="516.0" y="520.0" type="curve" smooth="yes"/>
      <point x="249" y="520"/>
      <point x="72" y="713"/>
    </contour>
  </outline>
</glyph>
<glyph name="Z" format="2">
  <advance width="1177"/>
  <unicode hex="005A"/>
  <outline>
    <contour>
      <point x="58.785714285714285" y="0.0" type="line"/>
      <point x="58.785714285714285" y="140.0" type="line"/>
      <point x="856.7857142857143" y="1298.0" type="line"/>
      <point x="70.78571428571429" y="1298.0" type="line"/>
      <point x="70.78571428571429" y="1456.0" type="line"/>
      <point x="1085.7857142857142" y="1456.0" type="line"/>
      <point x="1085.7857142857142" y="1316.0" type="line"/>
      <point x="287.7857142857143" y="158.0" type="line"/>
      <point x="1117.7857142857142" y="158.0" type="line"/>
      <point x="1117.7857142857142" y="0.0" type="line"/>
    </contour>
  </outline>
</glyph>
<glyph name="c" format="2">
  <advance width="1068"/>
  <unicode hex="0063"/>
  <outline>
    <contour>
      <point x="85.0" y="522.4285714285714" type="curve" smooth="yes"/>
      <point x="85.0" y="554.4285714285714" type="line" smooth="yes"/>
      <point x="85" y="881"/>
      <point x="267" y="1107"/>
      <point x="571.0" y="1106.857142857143" type="curve" smooth="yes"/>
      <point x="852" y="1107"/>
      <point x="999" y="925"/>
      <point x="999.0" y="735.5714285714286" type="curve" smooth="yes"/>
      <point x="999.0" y="730.5714285714286" type="line"/>
      <point x="819.0" y="730.5714285714286" type="line"/>
      <point x="819.0" y="735.5714285714286" type="line" smooth="yes"/>
      <point x="819" y="852"/>
      <point x="745" y="955"/>
      <point x="571.0" y="954.8571428571429" type="curve" smooth="yes"/>
      <point x="367" y="955"/>
      <point x="275" y="780"/>
      <point x="275.0" y="554.4285714285714" type="curve" smooth="yes"/>
      <point x="275.0" y="522.4285714285714" type="line" smooth="yes"/>
      <point x="275" y="297"/>
      <point x="367" y="122"/>
      <point x="571.0" y="122.0" type="curve" smooth="yes"/>
      <point x="745" y="122"/>
      <point x="819" y="225"/>
      <point x="819.0" y="341.2857142857143" type="curve" smooth="yes"/>
      <point x="819.0" y="346.2857142857143" type="line"/>
      <point x="999.0" y="346.2857142857143" type="line"/>
      <point x="999.0" y="341.2857142857143" type="line" smooth="yes"/>
      <point x="999" y="151"/>
      <point x="852" y="-30"/>
      <point x="571.0" y="-30.0" type="curve" smooth="yes"/>
      <point x="267" y="-30"/>
      <point x="85" y="196"/>
    </contour>
  </outline>
</glyph>
<glyph name="d" format="2">
  <advance width="1170"/>
  <unicode hex="0064"/>
  <outline>
    <contour>
      <point x="85.0" y="522.4285714285714" type="curve" smooth="yes"/>
      <point x="85.0" y="554.4285714285714" type="line" smooth="yes"/>
      <point x="85" y="870"/>
      <point x="257" y="1097"/>
      <point x="525.0" y="1096.857142857143" type="curve" smooth="yes"/>
      <point x="672" y="1097"/>
      <point x="774" y="1040"/>
      <point x="836.0" y="952.8571428571429" type="curve"/>
      <point x="836.0" y="1536.0" type="line"/>
      <point x="1022.0" y="1536.0" type="line"/>
      <point x="1022.0" y="0.0" type="line"/>
      <point x="854.0" y="0.0" type="line"/>
      <point x="846.0" y="137.0" type="line"/>
      <point x="840.0" y="137.0" type="line"/>
      <point x="786" y="50"/>
      <point x="672" y="-20"/>
      <point x="525.0" y="-20.0" type="curve" smooth="yes"/>
      <point x="257" y="-20"/>
      <point x="85" y="207"/>
    </contour>
    <contour>
      <point x="275.0" y="522.4285714285714" type="line" smooth="yes"/>
      <point x="275" y="301"/>
      <point x="364" y="132"/>
      <point x="565.0" y="132.0" type="curve" smooth="yes"/>
      <point x="699" y="132"/>
      <point x="794" y="218"/>
      <point x="836.0" y="312.0" type="curve"/>
      <point x="836.0" y="764.8571428571429" type="line"/>
      <point x="794" y="859"/>
      <point x="699" y="945"/>
      <point x="565.0" y="944.8571428571429" type="curve" smooth="yes"/>
      <point x="364" y="945"/>
      <point x="275" y="776"/>
      <point x="275.0" y="554.4285714285714" type="curve" smooth="yes"/>
    </contour>
  </outline>
</glyph>
<glyph name="q" format="2">
  <advance width="1170"/>
  <unicode hex="0071"/>
  <outline>
    <contour>
      <point x="85.0" y="522.4285714285714" type="curve" smooth="yes"/>
      <point x="85.0" y="554.4285714285714" type="line" smooth="yes"/>
      <point x="85" y="870"/>
      <point x="257" y="1097"/>
      <point x="525.0" y="1096.857142857143" type="curve" smooth="yes"/>
      <point x="672" y="1097"/>
      <point x="786" y="1027"/>
      <point x="840.0" y="939.8571428571429" type="curve"/>
      <point x="846.0" y="939.8571428571429" type="line"/>
      <point x="854.0" y="1076.857142857143" type="line"/>
      <point x="1022.0" y="1076.857142857143" type="line"/>
      <point x="1022.0" y="-416.0" type="line"/>
      <point x="836.0" y="-416.0" type="line"/>
      <point x="836.0" y="124.21428571428571" type="line"/>
      <point x="836.0" y="124.0" type="line"/>
      <point x="774" y="37"/>
      <point x="672" y="-20"/>
      <point x="525.0" y="-20.0" type="curve" smooth="yes"/>
      <point x="257" y="-20"/>
      <point x="85" y="207"/>
    </contour>
    <contour>
      <point x="275.0" y="522.4285714285714" type="line" smooth="yes"/>
      <point x="275" y="301"/>
      <point x="364" y="132"/>
      <point x="565.0" y="132.0" type="curve" smooth="yes"/>
      <point x="699" y="132"/>
      <point x="794" y="218"/>
      <point x="836.0" y="312.0" type="curve"/>
      <point x="836.0" y="764.8571428571429" type="line"/>
      <point x="794" y="859"/>
      <point x="699" y="945"/>
      <point x="565.0" y="944.8571428571429" type="curve" smooth="yes"/>
      <point x="364" y="945"/>
      <point x="275" y="776"/>
      <point x="275.0" y="554.4285714285714" type="curve" smooth="yes"/>
    </contour>
  </outline>
</glyph>
<glyph name="r" format="2">
  <advance width="700"/>
  <unicode hex="0072"/>
  <outline>
    <contour>
      <point x="148.0" y="0.0" type="line"/>
      <point x="148.0" y="1076.857142857143" type="line"/>
      <point x="316.0" y="1076.857142857143" type="line"/>
      <point x="324.0" y="941.8571428571429" type="line"/>
      <point x="330.0" y="941.8571428571429" type="line"/>
      <point x="384" y="1030"/>
      <point x="469" y="1107"/>
      <point x="590.0" y="1106.857142857143" type="curve" smooth="yes"/>
      <point x="619" y="1107"/>
      <point x="657" y="1098"/>
      <point x="670.0" y="1092.857142857143" type="curve"/>
      <point x="670.0" y="920.8571428571429" type="line"/>
      <point x="643" y="926"/>
      <point x="615" y="929"/>
      <point x="580.0" y="928.8571428571429" type="curve" smooth="yes"/>
      <point x="459" y="929"/>
      <point x="374" y="859"/>
      <point x="334.0" y="764.8571428571429" type="curve"/>
      <point x="334.0" y="0.0" type="line"/>
    </contour>
  </outline>
</glyph>
<glyph name="t" format="2">
  <advance width="650"/>
  <unicode hex="0074"/>
  <outline>
    <contour>
      <point x="0.0" y="934.8571428571429" type="line"/>
      <point x="0.0" y="1076.857142857143" type="line"/>
      <point x="600.0" y="1076.857142857143" type="line"/>
      <point x="600.0" y="934.8571428571429" type="line"/>
    </contour>
    <contour>
      <point x="188.0" y="260.0" type="curve" smooth="yes"/>
      <point x="188.0" y="990.8571428571429" type="line"/>
      <point x="188.0" y="1020.8571428571429" type="line"/>
      <point x="188.0" y="1320.5714285714287" type="line"/>
      <point x="374.0" y="1320.5714285714287" type="line"/>
      <point x="374.0" y="260.0" type="line" smooth="yes"/>
      <point x="374" y="166"/>
      <point x="410" y="130"/>
      <point x="490.0" y="130.0" type="curve" smooth="yes"/>
      <point x="528" y="130"/>
      <point x="562" y="139"/>
      <point x="600.0" y="152.0" type="curve"/>
      <point x="600.0" y="0.0" type="line"/>
      <point x="565" y="-16"/>
      <point x="507" y="-30"/>
      <point x="440.0" y="-30.0" type="curve" smooth="yes"/>
      <point x="286" y="-30"/>
      <point x="188" y="59"/>
    </contour>
  </outline>
</glyph>
<glyph name="v" format="2">
  <advance width="942"/>
  <unicode hex="0076"/>
  <outline>
    <contour>
      <point x="0.0" y="1076.857142857143" type="line"/>
      <point x="180.0" y="1076.857142857143" type="line"/>
      <point x="433.57142857142856" y="360.7142857142857" type="line" smooth="yes"/>
      <point x="452" y="307"/>
      <point x="465" y="257"/>
      <point x="470.7857142857143" y="224.28571428571428" type="curve"/>
      <point x="476.7857142857143" y="224.28571428571428" type="line"/>
      <point x="482" y="257"/>
      <point x="496" y="307"/>
      <point x="514.0" y="360.7142857142857" type="curve" smooth="yes"/>
      <point x="766.0" y="1076.857142857143" type="line"/>
      <point x="942.0" y="1076.857142857143" type="line"/>
      <point x="542.0" y="0.0" type="line"/>
      <point x="400.0" y="0.0" type="line"/>
    </contour>
  </outline>
</glyph>
<glyph name="exclamdown" format="2">
  <advance width="620"/>
  <unicode hex="00A1"/>
  <outline>
    <contour>
      <point x="434.0" y="1053.0" type="curve" smooth="yes"/>
      <point x="434" y="987"/>
      <point x="390" y="934"/>
      <point x="310.0" y="934.0" type="curve" smooth="yes"/>
      <point x="230" y="934"/>
      <point x="186" y="987"/>
      <point x="186.0" y="1053.0" type="curve" smooth="yes"/>
      <point x="186" y="1119"/>
      <point x="230" y="1172"/>
      <point x="310.0" y="1172.0" type="curve" smooth="yes"/>
      <point x="390" y="1172"/>
      <point x="434" y="1119"/>
    </contour>
    <contour>
      <point x="392.0" y="740.0" type="line"/>
      <point x="407.0" y="-306.0" type="line"/>
      <point x="213.0" y="-306.0" type="line"/>
      <point x="228.0" y="740.0" type="line"/>
    </contour>
  </outline>
</glyph>
<glyph name="twosuperior" format="2">
  <advance width="751"/>
  <unicode hex="00B2"/>
  <outline>
    <contour>
      <point x="85.0" y="697.0" type="line"/>
      <point x="85.0" y="805.0" type="line"/>
      <point x="373.0" y="1066.0" type="line" smooth="yes"/>
      <point x="464" y="1148"/>
      <point x="481" y="1205"/>
      <point x="481.0" y="1249.0" type="curve" smooth="yes"/>
      <point x="481" y="1313"/>
      <point x="449" y="1347"/>
      <point x="370.0" y="1347.0" type="curve" smooth="yes"/>
      <point x="283" y="1347"/>
      <point x="234" y="1298"/>
      <point x="235.0" y="1198.0" type="curve"/>
      <point x="67.0" y="1198.0" type="line"/>
      <point x="66" y="1374"/>
      <point x="176" y="1487"/>
      <point x="366.0" y="1487.0" type="curve" smooth="yes"/>
      <point x="546" y="1487"/>
      <point x="652" y="1396"/>
      <point x="652.0" y="1251.0" type="curve" smooth="yes"/>
      <point x="652" y="1144"/>
      <point x="586" y="1074"/>
      <point x="468.0" y="971.0" type="curve" smooth="yes"/>
      <point x="323.0" y="845.0" type="line"/>
      <point x="683.0" y="845.0" type="line"/>
      <point x="683.0" y="697.0" type="line"/>
    </contour>
  </outline>
</glyph>
<glyph name="threesuperior" format="2">
  <advance width="751"/>
  <unicode hex="00B3"/>
  <outline>
    <contour>
      <point x="63.0" y="920.0" type="curve"/>
      <point x="220.0" y="920.0" type="line"/>
      <point x="220" y="860"/>
      <point x="278" y="824"/>
      <point x="366.0" y="824.0" type="curve" smooth="yes"/>
      <point x="458" y="824"/>
      <point x="499" y="859"/>
      <point x="499.0" y="925.0" type="curve" smooth="yes"/>
      <point x="499" y="996"/>
      <point x="448" y="1028"/>
      <point x="350.0" y="1029.0" type="curve" smooth="yes"/>
      <point x="266.0" y="1029.0" type="line"/>
      <point x="266.0" y="1151.0" type="line"/>
      <point x="350.0" y="1151.0" type="line" smooth="yes"/>
      <point x="446" y="1151"/>
      <point x="486" y="1191"/>
      <point x="486.0" y="1255.0" type="curve" smooth="yes"/>
      <point x="486" y="1314"/>
      <point x="455" y="1349"/>
      <point x="363.0" y="1349.0" type="curve" smooth="yes"/>
      <point x="287" y="1349"/>
      <point x="231" y="1314"/>
      <point x="231.0" y="1256.0" type="curve"/>
      <point x="74.0" y="1256.0" type="line"/>
      <point x="74" y="1391"/>
      <point x="201" y="1487"/>
      <point x="360.0" y="1487.0" type="curve" smooth="yes"/>
      <point x="534" y="1487"/>
      <point x="656" y="1409"/>
      <point x="656.0" y="1263.0" type="curve" smooth="yes"/>
      <point x="656" y="1195"/>
      <point x="613" y="1127"/>
      <point x="533.0" y="1098.0" type="curve"/>
      <point x="624" y="1067"/>
      <point x="667" y="1005"/>
      <point x="667.0" y="917.0" type="curve" smooth="yes"/>
      <point x="667" y="770"/>
      <point x="535" y="686"/>
      <point x="361.0" y="686.0" type="curve" smooth="yes"/>
      <point x="183" y="686"/>
      <point x="63" y="762"/>
    </contour>
  </outline>
</glyph>
<glyph name="ae" format="2">
  <advance width="1748"/>
  <unicode hex="00E6"/>
  <outline>
    <contour>
      <point x="276.0" y="320.0" type="curve" smooth="yes"/>
      <point x="276" y="199"/>
      <point x="343" y="128"/>
      <point x="490.0" y="128.0" type="curve" smooth="yes"/>
      <point x="637" y="128"/>
      <point x="778" y="251"/>
      <point x="778.0" y="365.0" type="curve"/>
      <point x="778.0" y="516.0" type="line"/>
      <point x="560.0" y="516.0" type="line" smooth="yes"/>
      <point x="372" y="516"/>
      <point x="276" y="441"/>
    </contour>
    <contour>
      <point x="90.0" y="300.0" type="curve" smooth="yes"/>
      <point x="90" y="528"/>
      <point x="277" y="648"/>
      <point x="540.0" y="648.0" type="curve" smooth="yes"/>
      <point x="778.0" y="648.0" type="line"/>
      <point x="778.0" y="720.0" type="line" smooth="yes"/>
      <point x="778" y="847"/>
      <point x="721" y="934"/>
      <point x="560.0" y="934.0" type="curve" smooth="yes"/>
      <point x="399" y="934"/>
      <point x="337" y="857"/>
      <point x="337.0" y="770.0" type="curve" smooth="yes"/>
      <point x="337.0" y="765.0" type="line"/>
      <point x="152.0" y="765.0" type="line"/>
      <point x="152.0" y="770.0" type="line" smooth="yes"/>
      <point x="152" y="938"/>
      <point x="310" y="1082"/>
      <point x="565.0" y="1082.0" type="curve" smooth="yes"/>
      <point x="785" y="1082"/>
      <point x="898" y="975"/>
      <point x="911.0" y="872.0" type="curve"/>
      <point x="938" y="977"/>
      <point x="1049" y="1082"/>
      <point x="1245.0" y="1082.0" type="curve" smooth="yes"/>
      <point x="1533" y="1082"/>
      <point x="1692" y="882"/>
      <point x="1692.0" y="560.0" type="curve" smooth="yes"/>
      <point x="1692.0" y="484.0" type="line"/>
      <point x="883.0" y="484.0" type="line"/>
      <point x="883.0" y="632.0" type="line"/>
      <point x="1504.0" y="632.0" type="line"/>
      <point x="1505.0" y="656.0" type="line"/>
      <point x="1504" y="809"/>
      <point x="1420" y="930"/>
      <point x="1242.0" y="930.0" type="curve" smooth="yes"/>
      <point x="1058" y="930"/>
      <point x="959" y="760"/>
      <point x="959.0" y="542.0" type="curve" smooth="yes"/>
      <point x="959.0" y="510.0" type="line" smooth="yes"/>
      <point x="959" y="292"/>
      <point x="1058" y="122"/>
      <point x="1275.0" y="122.0" type="curve" smooth="yes"/>
      <point x="1409" y="122"/>
      <point x="1504" y="190"/>
      <point x="1564.0" y="270.0" type="curve"/>
      <point x="1684.0" y="175.0" type="line"/>
      <point x="1617" y="74"/>
      <point x="1476" y="-30"/>
      <point x="1275.0" y="-30.0" type="curve" smooth="yes"/>
      <point x="1079" y="-30"/>
      <point x="915" y="48"/>
      <point x="843.0" y="213.0" type="curve"/>
      <point x="788" y="60"/>
      <point x="654" y="-20"/>
      <point x="450.0" y="-20.0" type="curve" smooth="yes"/>
      <point x="249" y="-20"/>
      <point x="90" y="99"/>
    </contour>
  </outline>
</glyph>
<glyph name="oe" format="2">
  <advance width="1861"/>
  <unicode hex="0153"/>
  <outline>
    <contour>
      <point x="275.0" y="542.0" type="curve" smooth="yes"/>
      <point x="275.0" y="510.0" type="line" smooth="yes"/>
      <point x="275.0" y="291.58"/>
      <point x="377.32" y="122.0"/>
      <point x="581.0" y="122.0" type="curve" smooth="yes"/>
      <point x="784.6800000000001" y="122.0"/>
      <point x="887.0" y="290.24"/>
      <point x="887.0" y="510.0" type="curve" smooth="yes"/>
      <point x="887.0" y="542.0" type="line" smooth="yes"/>
      <point x="887.0" y="761.76"/>
      <point x="784.6800000000001" y="930.0"/>
      <point x="581.0" y="930.0" type="curve" smooth="yes"/>
      <point x="377.32" y="930.0"/>
      <point x="275.0" y="760.4200000000001"/>
    </contour>
    <contour>
      <point x="977.0" y="866.0" type="curve"/>
      <point x="1003.8" y="946.4"/>
      <point x="1151.48" y="1082.0"/>
      <point x="1390.0" y="1082.0" type="curve" smooth="yes"/>
      <point x="1640.58" y="1082.0"/>
      <point x="1809.0" y="881.6"/>
      <point x="1809.0" y="560.0" type="curve" smooth="yes"/>
      <point x="1809.0" y="484.0" type="line"/>
      <point x="1000.0" y="484.0" type="line"/>
      <point x="1000.0" y="632.0" type="line"/>
      <point x="1621.0" y="632.0" type="line"/>
      <point x="1622.0" y="656.0" type="line"/>
      <point x="1620.66" y="808.76"/>
      <point x="1533.48" y="930.0"/>
      <point x="1370.0" y="930.0" type="curve" smooth="yes"/>
      <point x="1171.68" y="930.0"/>
      <point x="1076.0" y="761.76"/>
      <point x="1076.0" y="542.0" type="curve" smooth="yes"/>
      <point x="1076.0" y="510.0" type="line" smooth="yes"/>
      <point x="1076.0" y="290.24"/>
      <point x="1164.92" y="122.0"/>
      <point x="1382.0" y="122.0" type="curve" smooth="yes"/>
      <point x="1516.0" y="122.0"/>
      <point x="1620.7" y="189.6"/>
      <point x="1681.0" y="270.0" type="curve"/>
      <point x="1801.0" y="175.0" type="line"/>
      <point x="1734.0" y="74.5"/>
      <point x="1585.8600000000001" y="-30.0"/>
      <point x="1413.0" y="-30.0" type="curve" smooth="yes"/>
      <point x="1149.02" y="-30.0"/>
      <point x="1019.2" y="84.5"/>
      <point x="979.0" y="185.0" type="curve"/>
      <point x="938.8" y="85.83999999999999"/>
      <point x="812.3" y="-30.0"/>
      <point x="551.0" y="-30.0" type="curve" smooth="yes"/>
      <point x="288.35999999999996" y="-30.0"/>
      <point x="85.0" y="191.07999999999998"/>
      <point x="85.0" y="510.0" type="curve" smooth="yes"/>
      <point x="85.0" y="542.0" type="line" smooth="yes"/>
      <point x="85.0" y="860.9200000000001"/>
      <point x="280.9" y="1081.0"/>
      <point x="569.0" y="1081.0" type="curve" smooth="yes"/>
      <point x="818.24" y="1081.0"/>
      <point x="950.2" y="939.7"/>
    </contour>
  </outline>
</glyph>
<glyph name="Schwa" format="2">
  <advance width="1446"/>
  <unicode hex="018F"/>
  <outline>
    <contour>
      <point x="64.0" y="1199.0" type="line"/>
      <point x="195.32000000000002" y="1409.38"/>
      <point x="378.21999999999997" y="1519.0"/>
      <point x="669.0" y="1519.0" type="curve" smooth="yes"/>
      <point x="1115.22" y="1519.0"/>
      <point x="1366.0" y="1197.7"/>
      <point x="1366.0" y="789.0" type="curve" smooth="yes"/>
      <point x="1366.0" y="328.03999999999996"/>
      <point x="1080.6" y="-30.0"/>
      <point x="692.0" y="-30.0" type="curve" smooth="yes"/>
      <point x="322.15999999999997" y="-30.0"/>
      <point x="102.0" y="180.01999999999998"/>
      <point x="102.0" y="578.0" type="curve" smooth="yes"/>
      <point x="102.0" y="686.0" type="line"/>
      <point x="1228.0" y="686.0" type="line"/>
      <point x="1228.0" y="554.0" type="line"/>
      <point x="665.0" y="562.0" type="line"/>
      <point x="298.0" y="556.0" type="line"/>
      <point x="298.0" y="481.0" type="line" smooth="yes"/>
      <point x="298.0" y="258.55999999999995"/>
      <point x="435.34" y="97.0"/>
      <point x="702.0" y="97.0" type="curve" smooth="yes"/>
      <point x="983.4000000000001" y="97.0"/>
      <point x="1177.68" y="364.41999999999996"/>
      <point x="1175.0" y="749.0" type="curve" smooth="yes"/>
      <point x="1172.32" y="1148.3200000000002"/>
      <point x="931.06" y="1375.0"/>
      <point x="651.0" y="1375.0" type="curve" smooth="yes"/>
      <point x="407.12" y="1375.0"/>
      <point x="238.74" y="1270.72"/>
      <point x="157.0" y="1126.0" type="curve"/>
    </contour>
  </outline>
</glyph>
<glyph name="dieresisbelowcomb" format="2">
  <advance width="1024"/>
  <unicode hex="0324"/>
  <outline>
    <contour>
      <point x="166.0" y="-328.0" type="curve" smooth="yes"/>
      <point x="166.0" y="-254.3"/>
      <point x="206.95999999999998" y="-214.0"/>
      <point x="282.0" y="-214.0" type="curve" smooth="yes"/>
      <point x="353.02" y="-214.0"/>
      <point x="398.0" y="-259.65999999999997"/>
      <point x="398.0" y="-328.0" type="curve" smooth="yes"/>
      <point x="398.0" y="-400.36"/>
      <point x="358.38" y="-441.0"/>
      <point x="282.0" y="-441.0" type="curve" smooth="yes"/>
      <point x="210.98" y="-441.0"/>
      <point x="166.0" y="-396.34000000000003"/>
    </contour>
    <contour>
      <point x="626.0" y="-328.0" type="curve" smooth="yes"/>
      <point x="626.0" y="-254.3"/>
      <point x="666.96" y="-214.0"/>
      <point x="742.0" y="-214.0" type="curve" smooth="yes"/>
      <point x="813.02" y="-214.0"/>
      <point x="858.0" y="-259.65999999999997"/>
      <point x="858.0" y="-328.0" type="curve" smooth="yes"/>
      <point x="858.0" y="-400.36"/>
      <point x="818.38" y="-441.0"/>
      <point x="742.0" y="-441.0" type="curve" smooth="yes"/>
      <point x="670.98" y="-441.0"/>
      <point x="626.0" y="-396.34000000000003"/>
    </contour>
  </outline>
</glyph>
<glyph name="alpha" format="2">
  <advance width="1236"/>
  <unicode hex="03B1"/>
  <anchor x="528.1428571428571" y="1076.857142857143" name="GRK_top"/>
  <outline>
    <contour>
      <point x="525.0" y="-20.0" type="curve" smooth="yes"/>
      <point x="257.0" y="-20.0"/>
      <point x="85.0" y="206.04285714285714"/>
      <point x="85.0" y="522.8571428571429" type="curve" smooth="yes"/>
      <point x="85.0" y="554.0" type="line" smooth="yes"/>
      <point x="85.0" y="870.8142857142857"/>
      <point x="257.0" y="1096.857142857143"/>
      <point x="525.0" y="1096.857142857143" type="curve" smooth="yes"/>
      <point x="672.4" y="1096.857142857143"/>
      <point x="787.74" y="1025.6171428571429"/>
      <point x="840.0" y="939.8571428571429" type="curve"/>
      <point x="846.0" y="939.8571428571429" type="line"/>
      <point x="854.0" y="1076.857142857143" type="line"/>
      <point x="1022.0" y="1076.857142857143" type="line"/>
      <point x="1022.0" y="262.0" type="line" smooth="yes"/>
      <point x="1022.0" y="161.5"/>
      <point x="1050.0" y="130.0"/>
      <point x="1117.0" y="130.0" type="curve"/>
      <point x="1137.1" y="130.0"/>
      <point x="1163.22" y="134.62"/>
      <point x="1186.0" y="144.0" type="curve"/>
      <point x="1186.0" y="-8.0" type="line"/>
      <point x="1160.54" y="-20.060000000000002"/>
      <point x="1121.56" y="-30.0"/>
      <point x="1076.0" y="-30.0" type="curve" smooth="yes"/>
      <point x="937.98" y="-30.0"/>
      <point x="864.76" y="25.11999999999999"/>
      <point x="846.0" y="135.0" type="curve"/>
      <point x="840.0" y="135.0" type="line"/>
      <point x="764.96" y="25.11999999999999"/>
      <point x="663.02" y="-20.0"/>
    </contour>
    <contour>
      <point x="565.0" y="132.0" type="curve" smooth="yes"/>
      <point x="699.0" y="132.0"/>
      <point x="794.46" y="218.2"/>
      <point x="836.0" y="312.0" type="curve"/>
      <point x="836.0" y="764.8571428571429" type="line"/>
      <point x="785.08" y="873.3971428571429"/>
      <point x="686.94" y="944.8571428571429"/>
      <point x="565.0" y="944.8571428571429" type="curve" smooth="yes"/>
      <point x="364.0" y="944.8571428571429"/>
      <point x="275.0" y="777.0142857142857"/>
      <point x="275.0" y="554.0" type="curve" smooth="yes"/>
      <point x="275.0" y="522.8571428571429" type="line" smooth="yes"/>
      <point x="275.0" y="299.84285714285716"/>
      <point x="364.0" y="132.0"/>
    </contour>
  </outline>
</glyph>
<glyph name="iota" format="2">
  <advance width="600"/>
  <unicode hex="03B9"/>
  <anchor x="256.0" y="1076.857142857143" name="GRK_top"/>
  <outline>
    <contour>
      <point x="390.0" y="-30.0" type="curve" smooth="yes"/>
      <point x="235.89999999999998" y="-30.0"/>
      <point x="138.0" y="59.0"/>
      <point x="138.0" y="260.0" type="curve" smooth="yes"/>
      <point x="138.0" y="1076.857142857143" type="line"/>
      <point x="324.0" y="1076.857142857143" type="line"/>
      <point x="324.0" y="260.0" type="line" smooth="yes"/>
      <point x="324.0" y="166.2"/>
      <point x="359.6" y="130.0"/>
      <point x="440.0" y="130.0" type="curve" smooth="yes"/>
      <point x="477.52" y="130.0"/>
      <point x="512.48" y="138.6"/>
      <point x="550.0" y="152.0" type="curve"/>
      <point x="550.0" y="0.0" type="line"/>
      <point x="515.16" y="-16.080000000000002"/>
      <point x="457.0" y="-30.0"/>
    </contour>
  </outline>
</glyph>
<glyph name="Be" format="2">
  <advance width="1250"/>
  <unicode hex="0411"/>
  <outline>
    <contour>
      <point x="170.0" y="0.0" type="line"/>
      <point x="170.0" y="1456.0" type="line"/>
      <point x="1052.0" y="1456.0" type="line"/>
      <point x="1052.0" y="1298.0" type="line"/>
      <point x="362.0" y="1298.0" type="line"/>
      <point x="362.0" y="866.0" type="line"/>
      <point x="652.0" y="866.0" type="line" smooth="yes"/>
      <point x="973.6" y="866.0"/>
      <point x="1150.0" y="696.3"/>
      <point x="1150.0" y="435.0" type="curve" smooth="yes"/>
      <point x="1150.0" y="172.35999999999996"/>
      <point x="973.6" y="0.0"/>
      <point x="652.0" y="0.0" type="curve" smooth="yes"/>
    </contour>
    <contour>
      <point x="362.0" y="708.0" type="line"/>
      <point x="362.0" y="158.0" type="line"/>
      <point x="652.0" y="158.0" type="line" smooth="yes"/>
      <point x="879.8" y="158.0"/>
      <point x="958.0" y="279.56"/>
      <point x="958.0" y="435.0" type="curve" smooth="yes"/>
      <point x="958.0" y="590.44"/>
      <point x="879.8" y="708.0"/>
      <point x="652.0" y="708.0" type="curve" smooth="yes"/>
    </contour>
  </outline>
</glyph>
<glyph name="Hard" format="2">
  <advance width="1329"/>
  <unicode hex="042A"/>
  <outline>
    <contour>
      <point x="24.0" y="1298.0" type="line"/>
      <point x="24.0" y="1456.0" type="line"/>
      <point x="491.0" y="1456.0" type="line"/>
      <point x="491.0" y="886.0" type="line"/>
      <point x="781.0" y="886.0" type="line" smooth="yes"/>
      <point x="1102.6" y="886.0"/>
      <point x="1279.0" y="713.0"/>
      <point x="1279.0" y="445.0" type="curve" smooth="yes"/>
      <point x="1279.0" y="177.0"/>
      <point x="1102.6" y="0.0"/>
      <point x="781.0" y="0.0" type="curve" smooth="yes"/>
      <point x="299.0" y="0.0" type="line"/>
      <point x="299.0" y="1298.0" type="line"/>
    </contour>
    <contour>
      <point x="491.0" y="728.0" type="line"/>
      <point x="491.0" y="158.0" type="line"/>
      <point x="781.0" y="158.0" type="line" smooth="yes"/>
      <point x="1008.8" y="158.0"/>
      <point x="1087.0" y="284.2"/>
      <point x="1087.0" y="445.0" type="curve" smooth="yes"/>
      <point x="1087.0" y="605.8"/>
      <point x="1008.8" y="728.0"/>
      <point x="781.0" y="728.0" type="curve" smooth="yes"/>
    </contour>
  </outline>
</glyph>
<glyph name="Ya" format="2">
  <advance width="1250"/>
  <unicode hex="042F"/>
  <outline>
    <contour>
      <point x="1080.0" y="0.0" type="line"/>
      <point x="1080.0" y="1456.0" type="line"/>
      <point x="606.0" y="1456.0" type="line" smooth="yes"/>
      <point x="292.44" y="1456.0"/>
      <point x="118.0" y="1287.96"/>
      <point x="118.0" y="1028.0" type="curve" smooth="yes"/>
      <point x="118.0" y="800.469882903948"/>
      <point x="254.133618619078" y="638.8352752211041"/>
      <point x="502.0" y="604.0" type="curve"/>
      <point x="547.0" y="594.0" type="line"/>
      <point x="888.0" y="594.0" type="line"/>
      <point x="888.0" y="0.0" type="line"/>
    </contour>
    <contour>
      <point x="888.0" y="750.0" type="line"/>
      <point x="606.0" y="750.0" type="line" smooth="yes"/>
      <point x="383.55999999999995" y="750.0"/>
      <point x="310.0" y="872.56"/>
      <point x="310.0" y="1028.0" type="curve" smooth="yes"/>
      <point x="310.0" y="1183.44"/>
      <point x="383.55999999999995" y="1300.0"/>
      <point x="606.0" y="1300.0" type="curve" smooth="yes"/>
      <point x="888.0" y="1300.0" type="line"/>
    </contour>
    <contour>
      <point x="248.0" y="0.0" type="line"/>
      <point x="605.0" y="672.0" type="line"/>
      <point x="404.0" y="672.0" type="line"/>
      <point x="40.0" y="0.0" type="line"/>
    </contour>
  </outline>
</glyph>
<glyph name="el" format="2">
  <advance width="1128"/>
  <unicode hex="043B"/>
  <outline>
    <contour>
      <point x="414.0" y="907.0" type="line"/>
      <point x="396.0" y="490.0" type="line" smooth="yes"/>
      <point x="379.92" y="124.17999999999995"/>
      <point x="323.68" y="-22.0"/>
      <point x="120.0" y="-22.0" type="curve" smooth="yes"/>
      <point x="74.44" y="-22.0"/>
      <point x="35.46" y="-16.060000000000002"/>
      <point x="10.0" y="-4.0" type="curve"/>
      <point x="10.0" y="152.0" type="line"/>
      <point x="32.78" y="142.62"/>
      <point x="56.519999999999996" y="139.0"/>
      <point x="86.0" y="139.0" type="curve" smooth="yes"/>
      <point x="191.86" y="139.0"/>
      <point x="213.94" y="227.89999999999998"/>
      <point x="226.0" y="516.0" type="curve" smooth="yes"/>
      <point x="249.0" y="1052.0" type="line"/>
      <point x="977.0" y="1052.0" type="line"/>
      <point x="977.0" y="0.0" type="line"/>
      <point x="791.0" y="0.0" type="line"/>
      <point x="791.0" y="907.0" type="line"/>
    </contour>
  </outline>
</glyph>
<glyph name="ya" format="2">
  <advance width="1117"/>
  <unicode hex="044F"/>
  <outline>
    <contour>
      <point x="289.0" y="0.0" type="line"/>
      <point x="85.0" y="0.0" type="line"/>
      <point x="411.0" y="454.0" type="line"/>
      <point x="596.0" y="437.0" type="line"/>
    </contour>
    <contour>
      <point x="783.0" y="0.0" type="line"/>
      <point x="783.0" y="384.0" type="line"/>
      <point x="539.0" y="384.0" type="line"/>
      <point x="521.0" y="396.0" type="line"/>
      <point x="262.38" y="396.0"/>
      <point x="119.0" y="519.02"/>
      <point x="119.0" y="716.0" type="curve" smooth="yes"/>
      <point x="119.0" y="921.02"/>
      <point x="262.38" y="1052.0"/>
      <point x="521.0" y="1052.0" type="curve" smooth="yes"/>
      <point x="969.0" y="1052.0" type="line"/>
      <point x="969.0" y="0.0" type="line"/>
    </contour>
    <contour>
      <point x="521.0" y="529.0" type="curve" smooth="yes"/>
      <point x="783.0" y="529.0" type="line"/>
      <point x="783.0" y="907.0" type="line"/>
      <point x="521.0" y="907.0" type="line" smooth="yes"/>
      <point x="361.53999999999996" y="907.0"/>
      <point x="305.0" y="827.886338797864"/>
      <point x="305.0" y="716.0" type="curve" smooth="yes"/>
      <point x="305.0" y="605.40882681562"/>
      <point x="360.2" y="529.0"/>
    </contour>
  </outline>
</glyph>
<glyph name="kadescender" format="2">
  <advance width="1028"/>
  <unicode hex="049B"/>
  <outline>
    <contour>
      <point x="830.0" y="0.0" type="line"/>
      <point x="411.0" y="477.0" type="line"/>
      <point x="525.0" y="603.0" type="line"/>
      <point x="958.0" y="113.0" type="line"/>
      <point x="958.0" y="0.0" type="line"/>
    </contour>
    <contour>
      <point x="241.0" y="610.0" type="line"/>
      <point x="420.0" y="610.0" type="line"/>
      <point x="805.0" y="1052.0" type="line"/>
      <point x="1023.0" y="1052.0" type="line"/>
      <point x="508.0" y="465.0" type="line"/>
      <point x="241.0" y="465.0" type="line"/>
    </contour>
    <contour>
      <point x="334.0" y="1052.0" type="line"/>
      <point x="334.0" y="0.0" type="line"/>
      <point x="148.0" y="0.0" type="line"/>
      <point x="148.0" y="1052.0" type="line"/>
    </contour>
    <contour>
      <point x="830.0" y="145.0" type="line"/>
      <point x="1067.0" y="145.0" type="line"/>
      <point x="1067.0" y="-270.0" type="line"/>
      <point x="899.0" y="-270.0" type="line"/>
      <point x="899.0" y="0.0" type="line"/>
      <point x="830.0" y="0.0" type="line"/>
    </contour>
  </outline>
</glyph>
<glyph name="kabashkircyr" format="2">
  <advance width="1215"/>
  <unicode hex="04A1"/>
  <outline>
    <contour>
      <point x="1002.0" y="0.0" type="line"/>
      <point x="583.0" y="477.0" type="line"/>
      <point x="697.0" y="603.0" type="line"/>
      <point x="1230.0" y="0.0" type="line"/>
    </contour>
    <contour>
      <point x="415.0" y="610.0" type="line"/>
      <point x="592.0" y="610.0" type="line"/>
      <point x="977.0" y="1052.0" type="line"/>
      <point x="1195.0" y="1052.0" type="line"/>
      <point x="680.0" y="465.0" type="line"/>
      <point x="415.0" y="465.0" type="line"/>
    </contour>
    <contour>
      <point x="506.0" y="1052.0" type="line"/>
      <point x="506.0" y="0.0" type="line"/>
      <point x="320.0" y="0.0" type="line"/>
      <point x="320.0" y="907.0" type="line"/>
      <point x="30.0" y="907.0" type="line"/>
      <point x="30.0" y="1052.0" type="line"/>
    </contour>
  </outline>
</glyph>
<glyph name="Endescender" format="2">
  <advance width="1498"/>
  <unicode hex="04A2"/>
  <outline>
    <contour>
      <point x="170.0" y="0.0" type="line"/>
      <point x="170.0" y="1456.0" type="line"/>
      <point x="362.0" y="1456.0" type="line"/>
      <point x="362.0" y="830.0" type="line"/>
      <point x="1096.0" y="830.0" type="line"/>
      <point x="1096.0" y="1456.0" type="line"/>
      <point x="1288.0" y="1456.0" type="line"/>
      <point x="1288.0" y="158.0" type="line"/>
      <point x="1468.0" y="158.0" type="line"/>
      <point x="1468.0" y="-290.0" type="line"/>
      <point x="1296.0" y="-290.0" type="line"/>
      <point x="1296.0" y="0.0" type="line"/>
      <point x="1096.0" y="0.0" type="line"/>
      <point x="1096.0" y="672.0" type="line"/>
      <point x="362.0" y="672.0" type="line"/>
      <point x="362.0" y="0.0" type="line"/>
    </contour>
  </outline>
</glyph>
<glyph name="hadescender" format="2">
  <advance width="986"/>
  <unicode hex="04B3"/>
  <outline>
    <contour>
      <point x="20.0" y="0.0" type="line"/>
      <point x="420.0" y="582.0" type="line"/>
      <point x="431.0" y="582.0" type="line"/>
      <point x="728.0" y="1052.0" type="line"/>
      <point x="938.0" y="1052.0" type="line"/>
      <point x="558.0" y="484.0" type="line"/>
      <point x="547.0" y="484.0" type="line"/>
      <point x="230.0" y="0.0" type="line"/>
    </contour>
    <contour>
      <point x="40.0" y="1052.0" type="line"/>
      <point x="253.0" y="1052.0" type="line"/>
      <point x="550.0" y="582.0" type="line"/>
      <point x="558.0" y="582.0" type="line"/>
      <point x="884.0" y="107.0" type="line"/>
      <point x="884.0" y="0.0" type="line"/>
      <point x="745.0" y="0.0" type="line"/>
      <point x="428.0" y="484.0" type="line"/>
      <point x="420.0" y="484.0" type="line"/>
    </contour>
    <contour>
      <point x="745.0" y="145.0" type="line"/>
      <point x="1015.0" y="145.0" type="line"/>
      <point x="1015.0" y="-270.0" type="line"/>
      <point x="847.0" y="-270.0" type="line"/>
      <point x="847.0" y="0.0" type="line"/>
      <point x="745.0" y="0.0" type="line"/>
    </contour>
  </outline>
</glyph>
<glyph name="chedescender-cy" format="2">
  <advance width="1122"/>
  <unicode hex="04B7"/>
  <outline>
    <contour>
      <point x="947.0" y="145.0" type="line"/>
      <point x="1102.0" y="145.0" type="line"/>
      <point x="1102.0" y="-270.0" type="line"/>
      <point x="934.0" y="-270.0" type="line"/>
      <point x="934.0" y="0.0" type="line"/>
      <point x="761.0" y="0.0" type="line"/>
      <point x="761.0" y="1052.0" type="line"/>
      <point x="947.0" y="1052.0" type="line"/>
    </contour>
    <contour>
      <point x="311.0" y="1052.0" type="line"/>
      <point x="311.0" y="773.0" type="line" smooth="yes"/>
      <point x="311.0" y="597.46"/>
      <point x="368.17999999999995" y="542.0"/>
      <point x="533.0" y="542.0" type="curve" smooth="yes"/>
      <point x="652.26" y="542.0"/>
      <point x="736.08" y="560.52"/>
      <point x="854.0" y="590.0" type="curve"/>
      <point x="854.0" y="444.0" type="line"/>
      <point x="740.1" y="418.54"/>
      <point x="663.16" y="396.0"/>
      <point x="497.0" y="396.0" type="curve" smooth="yes"/>
      <point x="234.35999999999996" y="396.0"/>
      <point x="125.0" y="518.4"/>
      <point x="125.0" y="773.0" type="curve" smooth="yes"/>
      <point x="125.0" y="1052.0" type="line"/>
    </contour>
  </outline>
</glyph>
<glyph name="quotedblright" format="2">
  <advance width="830"/>
  <unicode hex="201D"/>
  <outline>
    <contour>
      <point x="318.0" y="1458.0" type="line"/>
      <point x="318.0" y="1330.0" type="line" smooth="yes"/>
      <point x="318.0" y="1209.4"/>
      <point x="254.88" y="1059.12"/>
      <point x="145.0" y="968.0" type="curve"/>
      <point x="39.0" y="1041.0" type="line"/>
      <point x="101.98" y="1129.44"/>
      <point x="134.0" y="1218.46"/>
      <point x="134.0" y="1327.0" type="curve" smooth="yes"/>
      <point x="134.0" y="1458.0" type="line"/>
    </contour>
    <contour>
      <point x="738.0" y="1458.0" type="line"/>
      <point x="738.0" y="1330.0" type="line" smooth="yes"/>
      <point x="738.0" y="1209.4"/>
      <point x="674.88" y="1059.12"/>
      <point x="565.0" y="968.0" type="curve"/>
      <point x="459.0" y="1041.0" type="line"/>
      <point x="521.98" y="1129.44"/>
      <point x="554.0" y="1218.46"/>
      <point x="554.0" y="1327.0" type="curve" smooth="yes"/>
      <point x="554.0" y="1458.0" type="line"/>
    </contour>
  </outline>
</glyph>
<glyph name="bullet" format="2">
  <advance width="784"/>
  <unicode hex="2022"/>
  <outline>
    <contour>
      <point x="104.0" y="773.0" type="curve" smooth="yes"/>
      <point x="104.0" y="928.44"/>
      <point x="223.16" y="1061.0"/>
      <point x="392.0" y="1061.0" type="curve" smooth="yes"/>
      <point x="560.84" y="1061.0"/>
      <point x="680.0" y="928.44"/>
      <point x="680.0" y="773.0" type="curve" smooth="yes"/>
      <point x="680.0" y="620.24"/>
      <point x="560.84" y="487.0"/>
      <point x="392.0" y="487.0" type="curve" smooth="yes"/>
      <point x="223.16" y="487.0"/>
      <point x="104.0" y="620.24"/>
    </contour>
  </outline>
</glyph>
<glyph name="approxequal" format="2">
  <advance width="1024"/>
  <unicode hex="2248"/>
  <outline>
    <contour>
      <point x="46.0" y="704.0" type="curve"/>
      <point x="46.0" y="901.0" type="line"/>
      <point x="108.98" y="969.34"/>
      <point x="202.89999999999998" y="1009.66"/>
      <point x="290.0" y="1011.0" type="curve" smooth="yes"/>
      <point x="395.86" y="1012.34"/>
      <point x="439.58" y="979.54"/>
      <point x="524.0" y="938.0" type="curve" smooth="yes"/>
      <point x="603.06" y="897.8"/>
      <point x="642.84" y="868.0"/>
      <point x="742.0" y="868.0" type="curve" smooth="yes"/>
      <point x="829.1" y="868.0"/>
      <point x="916.02" y="915.6"/>
      <point x="979.0" y="996.0" type="curve"/>
      <point x="979.0" y="799.0" type="line"/>
      <point x="916.02" y="730.66"/>
      <point x="830.1" y="690.0"/>
      <point x="743.0" y="690.0" type="curve" smooth="yes"/>
      <point x="643.84" y="690.0"/>
      <point x="604.06" y="718.8"/>
      <point x="525.0" y="759.0" type="curve" smooth="yes"/>
      <point x="440.58" y="800.54"/>
      <point x="395.86" y="832.0"/>
      <point x="290.0" y="832.0" type="curve" smooth="yes"/>
      <point x="202.89999999999998" y="832.0"/>
      <point x="108.98" y="784.4"/>
    </contour>
    <contour>
      <point x="45.0" y="287.0" type="curve"/>
      <point x="45.0" y="484.0" type="line"/>
      <point x="107.98" y="552.34"/>
      <point x="201.89999999999998" y="591.66"/>
      <point x="289.0" y="593.0" type="curve" smooth="yes"/>
      <point x="394.86" y="594.34"/>
      <point x="438.58" y="561.54"/>
      <point x="523.0" y="520.0" type="curve" smooth="yes"/>
      <point x="602.06" y="479.8"/>
      <point x="641.84" y="451.0"/>
      <point x="741.0" y="451.0" type="curve" smooth="yes"/>
      <point x="828.1" y="451.0"/>
      <point x="915.02" y="498.6"/>
      <point x="978.0" y="579.0" type="curve"/>
      <point x="978.0" y="381.0" type="line"/>
      <point x="915.02" y="312.65999999999997"/>
      <point x="829.1" y="272.0"/>
      <point x="742.0" y="272.0" type="curve" smooth="yes"/>
      <point x="642.84" y="272.0"/>
      <point x="603.06" y="300.8"/>
      <point x="524.0" y="341.0" type="curve" smooth="yes"/>
      <point x="439.58" y="382.54"/>
      <point x="394.86" y="414.0"/>
      <point x="289.0" y="414.0" type="curve" smooth="yes"/>
      <point x="201.89999999999998" y="414.0"/>
      <point x="107.98" y="367.4"/>
    </contour>
  </outline>
</glyph>
<glyph name="breve.cyr.case" format="2">
  <advance width="1024"/>
  <outline>
    <contour>
      <point x="512.0" y="1788.0" type="curve" smooth="yes"/>
      <point x="637.96" y="1788.0"/>
      <point x="714.08" y="1831.6"/>
      <point x="765.0" y="1979.0" type="curve"/>
      <point x="914.0" y="1889.0" type="line"/>
      <point x="837.62" y="1709.44"/>
      <point x="686.2" y="1640.0"/>
      <point x="512.0" y="1640.0" type="curve" smooth="yes"/>
      <point x="337.79999999999995" y="1640.0"/>
      <point x="185.04000000000002" y="1709.44"/>
      <point x="110.0" y="1889.0" type="curve"/>
      <point x="259.0" y="1979.0" type="line"/>
      <point x="308.58" y="1832.94"/>
      <point x="386.03999999999996" y="1788.0"/>
    </contour>
  </outline>
</glyph>
<glyph name="dollar.rvrn" format="2">
  <advance width="1057"/>
  <outline>
    <contour>
      <point x="35.785714285714285" y="387.42857142857144" type="curve" smooth="yes"/>
      <point x="35.785714285714285" y="398.64285714285717" type="line"/>
      <point x="214.28571428571428" y="398.64285714285717" type="line"/>
      <point x="214.28571428571428" y="387.42857142857144" type="line" smooth="yes"/>
      <point x="214.28571428571428" y="224.61857142857144"/>
      <point x="329.8142857142857" y="146.21428571428572"/>
      <point x="529.8571428571429" y="146.21428571428572" type="curve" smooth="yes"/>
      <point x="728.56" y="146.21428571428572"/>
      <point x="837.4285714285714" y="235.49142857142857"/>
      <point x="837.4285714285714" y="371.2142857142857" type="curve" smooth="yes"/>
      <point x="837.4285714285714" y="493.53714285714284"/>
      <point x="766.8128571428572" y="585.63"/>
      <point x="469.42857142857144" y="669.5714285714286" type="curve" smooth="yes"/>
      <point x="173.38428571428568" y="752.7471428571428"/>
      <point x="64.0" y="885.892857142857"/>
      <point x="64.0" y="1094.0714285714287" type="curve" smooth="yes"/>
      <point x="64.0" y="1304.0685714285714"/>
      <point x="233.19285714285712" y="1457.5714285714287"/>
      <point x="519.8571428571429" y="1457.5714285714287" type="curve" smooth="yes"/>
      <point x="807.5742857142857" y="1457.5714285714287"/>
      <point x="987.7142857142857" y="1286.5742857142857"/>
      <point x="987.7142857142857" y="1070.642857142857" type="curve" smooth="yes"/>
      <point x="987.7142857142857" y="1059.4285714285713" type="line"/>
      <point x="809.2142857142857" y="1059.4285714285713" type="line"/>
      <point x="809.2142857142857" y="1070.642857142857" type="line" smooth="yes"/>
      <point x="809.2142857142857" y="1213.0657142857142"/>
      <point x="712.9128571428572" y="1305.857142857143"/>
      <point x="519.8571428571429" y="1305.857142857143" type="curve" smooth="yes"/>
      <point x="327.85428571428565" y="1305.857142857143"/>
      <point x="240.5" y="1229.5071428571428"/>
      <point x="240.5" y="1094.0714285714287" type="curve" smooth="yes"/>
      <point x="240.5" y="983.8085714285714"/>
      <point x="306.4757142857142" y="896.3157142857143"/>
      <point x="598.5" y="813.7142857142857" type="curve" smooth="yes"/>
      <point x="889.1842857142858" y="732.4528571428572"/>
      <point x="1013.9285714285714" y="591.4528571428572"/>
      <point x="1013.9285714285714" y="371.2142857142857" type="curve" smooth="yes"/>
      <point x="1013.9285714285714" y="149.92285714285714"/>
      <point x="828.5814285714287" y="-4.714285714285714"/>
      <point x="529.8571428571429" y="-4.714285714285714" type="curve" smooth="yes"/>
      <point x="229.79285714285714" y="-4.714285714285714"/>
      <point x="35.785714285714285" y="144.41"/>
    </contour>
    <contour>
      <point x="454.85714285714283" y="-165.71428571428572" type="line"/>
      <point x="454.85714285714283" y="104.42857142857143" type="line"/>
      <point x="591.7142857142857" y="104.42857142857143" type="line"/>
      <point x="591.7142857142857" y="84.28571428571429" type="line"/>
      <point x="604.8571428571429" y="74.28571428571429" type="line"/>
      <point x="604.8571428571429" y="-165.71428571428572" type="line"/>
    </contour>
    <contour>
      <point x="468.0" y="1359.4285714285713" type="line"/>
      <point x="468.0" y="1379.5714285714287" type="line"/>
      <point x="454.85714285714283" y="1389.5714285714287" type="line"/>
      <point x="454.85714285714283" y="1590.2857142857142" type="line"/>
      <point x="604.8571428571429" y="1590.2857142857142" type="line"/>
      <point x="604.8571428571429" y="1359.4285714285713" type="line"/>
    </contour>
  </outline>
</glyph>
<glyph name="eight.prop" format="2">
  <advance width="1156"/>
  <outline>
    <contour>
      <point x="104.0" y="386.0" type="curve" smooth="yes"/>
      <point x="104.0" y="560.2"/>
      <point x="207.92" y="682.7"/>
      <point x="358.0" y="743.0" type="curve"/>
      <point x="358.0" y="747.0" type="line"/>
      <point x="242.76" y="804.62"/>
      <point x="150.0" y="926.2"/>
      <point x="150.0" y="1087.0" type="curve" smooth="yes"/>
      <point x="150.0" y="1328.2"/>
      <point x="336.79999999999995" y="1486.0"/>
      <point x="578.0" y="1486.0" type="curve" smooth="yes"/>
      <point x="819.2" y="1486.0"/>
      <point x="1006.0" y="1328.2"/>
      <point x="1006.0" y="1087.0" type="curve" smooth="yes"/>
      <point x="1006.0" y="926.2"/>
      <point x="913.24" y="804.62"/>
      <point x="798.0" y="747.0" type="curve"/>
      <point x="798.0" y="743.0" type="line"/>
      <point x="948.08" y="682.7"/>
      <point x="1052.0" y="560.2"/>
      <point x="1052.0" y="386.0" type="curve" smooth="yes"/>
      <point x="1052.0" y="120.68"/>
      <point x="846.0" y="-30.0"/>
      <point x="578.0" y="-30.0" type="curve" smooth="yes"/>
      <point x="310.0" y="-30.0"/>
      <point x="104.0" y="120.68"/>
    </contour>
    <contour>
      <point x="292.0" y="396.0" type="curve" smooth="yes"/>
      <point x="292.0" y="235.2"/>
      <point x="403.79999999999995" y="128.0"/>
      <point x="578.0" y="128.0" type="curve" smooth="yes"/>
      <point x="752.2" y="128.0"/>
      <point x="864.0" y="235.2"/>
      <point x="864.0" y="396.0" type="curve" smooth="yes"/>
      <point x="864.0" y="556.8"/>
      <point x="752.2" y="666.0"/>
      <point x="578.0" y="666.0" type="curve" smooth="yes"/>
      <point x="403.79999999999995" y="666.0"/>
      <point x="292.0" y="556.8"/>
    </contour>
    <contour>
      <point x="334.0" y="1077.0" type="curve" smooth="yes"/>
      <point x="334.0" y="929.6"/>
      <point x="430.6" y="824.0"/>
      <point x="578.0" y="824.0" type="curve" smooth="yes"/>
      <point x="725.4" y="824.0"/>
      <point x="822.0" y="929.6"/>
      <point x="822.0" y="1077.0" type="curve" smooth="yes"/>
      <point x="822.0" y="1224.4"/>
      <point x="725.4" y="1328.0"/>
      <point x="578.0" y="1328.0" type="curve" smooth="yes"/>
      <point x="430.6" y="1328.0"/>
      <point x="334.0" y="1224.4"/>
    </contour>
  </outline>
</glyph>
<glyph name="five.prop" format="2">
  <advance width="1072"/>
  <outline>
    <contour>
      <point x="58.0" y="365.0" type="curve" smooth="yes"/>
      <point x="58.0" y="375.0" type="line"/>
      <point x="242.0" y="375.0" type="line"/>
      <point x="242.0" y="365.0" type="line" smooth="yes"/>
      <point x="242.0" y="217.6"/>
      <point x="353.79999999999995" y="128.0"/>
      <point x="528.0" y="128.0" type="curve" smooth="yes"/>
      <point x="702.2" y="128.0"/>
      <point x="824.0" y="250.6"/>
      <point x="824.0" y="465.0" type="curve" smooth="yes"/>
      <point x="824.0" y="679.4"/>
      <point x="702.2" y="793.0"/>
      <point x="528.0" y="793.0" type="curve" smooth="yes"/>
      <point x="407.4" y="793.0"/>
      <point x="320.4" y="748.4"/>
      <point x="240.0" y="668.0" type="curve"/>
      <point x="108.0" y="730.0" type="line"/>
      <point x="182.0" y="1456.0" type="line"/>
      <point x="938.0" y="1456.0" type="line"/>
      <point x="938.0" y="1286.0" type="line"/>
      <point x="338.0" y="1286.0" type="line"/>
      <point x="294.0" y="876.0" type="line"/>
      <point x="361.0" y="916.2"/>
      <point x="450.8" y="952.0"/>
      <point x="558.0" y="952.0" type="curve" smooth="yes"/>
      <point x="812.6" y="952.0"/>
      <point x="1014.0" y="773.2"/>
      <point x="1014.0" y="465.0" type="curve" smooth="yes"/>
      <point x="1014.0" y="156.79999999999995"/>
      <point x="809.4000000000001" y="-30.0"/>
      <point x="528.0" y="-30.0" type="curve" smooth="yes"/>
      <point x="246.59999999999997" y="-30.0"/>
      <point x="58.0" y="137.2"/>
    </contour>
  </outline>
</glyph>
<glyph name="hard.bgr" format="2">
  <advance width="1260"/>
  <outline>
    <contour>
      <point x="320.0" y="351.0" type="curve" smooth="yes"/>
      <point x="320.0" y="907.0" type="line"/>
      <point x="30.0" y="907.0" type="line"/>
      <point x="30.0" y="1052.0" type="line"/>
      <point x="506.0" y="1052.0" type="line"/>
      <point x="506.0" y="718.0" type="line"/>
      <point x="778.0" y="718.0" type="line" smooth="yes"/>
      <point x="1050.02" y="718.0"/>
      <point x="1200.0" y="578.8"/>
      <point x="1200.0" y="351.0" type="curve" smooth="yes"/>
      <point x="1200.0" y="117.83999999999997"/>
      <point x="1043.42" y="-30.0"/>
      <point x="758.0" y="-30.0" type="curve" smooth="yes"/>
      <point x="475.26" y="-30.0"/>
      <point x="320.0" y="117.83999999999997"/>
    </contour>
    <contour>
      <point x="506.0" y="351.0" type="line" smooth="yes"/>
      <point x="506.0" y="218.34"/>
      <point x="570.4" y="123.0"/>
      <point x="758.0" y="123.0" type="curve" smooth="yes"/>
      <point x="948.28" y="123.0"/>
      <point x="1014.0" y="218.34"/>
      <point x="1014.0" y="351.0" type="curve" smooth="yes"/>
      <point x="1014.0" y="480.27869158876"/>
      <point x="953.54" y="573.0"/>
      <point x="778.0" y="573.0" type="curve" smooth="yes"/>
      <point x="506.0" y="573.0" type="line"/>
    </contour>
  </outline>
</glyph>
<glyph name="six.prop" format="2">
  <advance width="1136"/>
  <outline>
    <contour>
      <point x="80.0" y="614.0" type="curve" smooth="yes"/>
      <point x="80.0" y="644.0" type="line" smooth="yes"/>
      <point x="80.0" y="1153.2"/>
      <point x="362.79999999999995" y="1486.0"/>
      <point x="872.0" y="1486.0" type="curve" smooth="yes"/>
      <point x="892.0" y="1486.0" type="line"/>
      <point x="892.0" y="1328.0" type="line"/>
      <point x="872.0" y="1328.0" type="line" smooth="yes"/>
      <point x="496.79999999999995" y="1328.0"/>
      <point x="268.0" y="1123.0"/>
      <point x="268.0" y="654.0" type="curve" smooth="yes"/>
      <point x="268.0" y="604.0" type="line" smooth="yes"/>
      <point x="268.0" y="255.59999999999997"/>
      <point x="404.4" y="128.0"/>
      <point x="592.0" y="128.0" type="curve" smooth="yes"/>
      <point x="779.6" y="128.0"/>
      <point x="886.0" y="249.6"/>
      <point x="886.0" y="464.0" type="curve" smooth="yes"/>
      <point x="886.0" y="678.4"/>
      <point x="779.6" y="798.0"/>
      <point x="592.0" y="798.0" type="curve" smooth="yes"/>
      <point x="417.79999999999995" y="798.0"/>
      <point x="262.0" y="678.4"/>
      <point x="262.0" y="464.0" type="curve"/>
      <point x="192.0" y="464.0" type="line"/>
      <point x="192.0" y="758.8"/>
      <point x="364.0" y="956.0"/>
      <point x="632.0" y="956.0" type="curve" smooth="yes"/>
      <point x="900.0" y="956.0"/>
      <point x="1076.0" y="758.8"/>
      <point x="1076.0" y="464.0" type="curve" smooth="yes"/>
      <point x="1076.0" y="169.2"/>
      <point x="873.4000000000001" y="-30.0"/>
      <point x="592.0" y="-30.0" type="curve" smooth="yes"/>
      <point x="310.59999999999997" y="-30.0"/>
      <point x="80.0" y="158.39999999999998"/>
    </contour>
  </outline>
</glyph>
<glyph name="soft.bgr" format="2">
  <advance width="1088"/>
  <outline>
    <contour>
      <point x="148.0" y="351.0" type="curve" smooth="yes"/>
      <point x="148.0" y="1052.0" type="line"/>
      <point x="334.0" y="1052.0" type="line"/>
      <point x="334.0" y="718.0" type="line"/>
      <point x="606.0" y="718.0" type="line" smooth="yes"/>
      <point x="878.02" y="718.0"/>
      <point x="1028.0" y="578.8"/>
      <point x="1028.0" y="351.0" type="curve" smooth="yes"/>
      <point x="1028.0" y="117.83999999999997"/>
      <point x="871.4200000000001" y="-30.0"/>
      <point x="586.0" y="-30.0" type="curve" smooth="yes"/>
      <point x="303.26" y="-30.0"/>
      <point x="148.0" y="117.83999999999997"/>
    </contour>
    <contour>
      <point x="334.0" y="351.0" type="line" smooth="yes"/>
      <point x="334.0" y="218.34"/>
      <point x="398.4" y="123.0"/>
      <point x="586.0" y="123.0" type="curve" smooth="yes"/>
      <point x="776.28" y="123.0"/>
      <point x="842.0" y="218.34"/>
      <point x="842.0" y="351.0" type="curve" smooth="yes"/>
      <point x="842.0" y="480.27869158876"/>
      <point x="781.54" y="573.0"/>
      <point x="606.0" y="573.0" type="curve" smooth="yes"/>
      <point x="334.0" y="573.0" type="line"/>
    </contour>
  </outline>
</glyph>
